<?xml version="1.0" standalone="no"?>
<!DOCTYPE svg PUBLIC "-//W3C//DTD SVG 20010904//EN"
 "http://www.w3.org/TR/2001/REC-SVG-20010904/DTD/svg10.dtd">
<svg version="1.0" xmlns="http://www.w3.org/2000/svg"
 width="48.000000pt" height="48.000000pt" viewBox="0 0 48.000000 48.000000"
 preserveAspectRatio="xMidYMid meet">
<metadata>
Created by potrace 1.10, written by Peter Selinger 2001-2011
</metadata>
<g transform="translate(0.000000,48.000000) scale(0.100000,-0.100000)"
fill="#000000" stroke="none">
<path d="M272 418 c-19 -19 -14 -41 15 -62 30 -22 56 -12 61 23 7 42 -46 69
-76 39z"/>
<path d="M195 355 c-14 -13 -25 -33 -25 -45 0 -27 43 -70 70 -70 27 0 70 43
70 70 0 29 -13 24 -30 -13 -18 -38 -49 -46 -74 -18 -24 27 -14 66 22 85 20 11
22 15 9 16 -10 0 -29 -11 -42 -25z"/>
<path d="M220 340 c-10 -6 -11 -10 -2 -10 7 0 12 -13 12 -30 0 -16 5 -30 10
-30 6 0 10 18 10 40 0 42 -5 46 -30 30z"/>
<path d="M80 187 c-19 -6 -36 -11 -38 -12 -2 -2 28 -77 34 -84 2 -2 10 1 17 8
11 8 31 4 88 -19 l74 -31 90 39 c68 30 90 44 90 58 0 12 -7 19 -20 19 -11 1
-26 4 -33 8 -6 5 -17 5 -22 2 -6 -4 -17 -2 -24 4 -10 8 -23 7 -49 -4 -33 -13
-39 -13 -79 5 -48 22 -76 23 -128 7z m163 -33 c49 -7 69 -26 49 -46 -8 -8 -26
-5 -63 10 -56 24 -69 26 -69 14 0 -4 24 -16 53 -26 28 -10 46 -21 39 -24 -8
-2 -41 7 -75 21 -34 14 -70 28 -81 31 -15 5 -16 9 -5 22 14 17 21 16 152 -2z
m142 -14 c-8 -14 -66 -43 -72 -37 -9 10 37 47 58 47 11 0 17 -5 14 -10z"/>
</g>
</svg>
