<?xml version="1.0" standalone="no"?>
<!DOCTYPE svg PUBLIC "-//W3C//DTD SVG 20010904//EN"
 "http://www.w3.org/TR/2001/REC-SVG-20010904/DTD/svg10.dtd">
<svg version="1.0" xmlns="http://www.w3.org/2000/svg"
 width="200.000000pt" height="201.000000pt" viewBox="0 0 200.000000 201.000000"
 preserveAspectRatio="xMidYMid meet">
<metadata>
Created by potrace 1.10, written by Peter Selinger 2001-2011
</metadata>
<g transform="translate(0.000000,201.000000) scale(0.100000,-0.100000)"
fill="#000000" stroke="none">
<path d="M330 1179 c0 -18 4 -28 10 -24 6 3 10 13 10 21 0 8 4 14 9 14 5 0 18
3 28 6 11 4 3 -8 -19 -32 l-38 -40 0 -117 c0 -64 2 -117 5 -117 4 0 19 7 35
15 21 11 32 27 40 55 10 37 13 40 46 40 37 0 84 36 84 65 0 12 -13 15 -60 15
-64 0 -80 -14 -30 -25 17 -4 30 -10 30 -13 -1 -13 -77 -42 -110 -42 l-34 0 36
38 c19 20 38 49 42 65 6 26 8 27 79 27 64 0 76 3 94 23 11 12 23 30 26 40 6
16 -4 17 -138 16 l-145 0 0 -30z m220 -8 c0 -12 -38 -20 -82 -16 -25 2 -38 -1
-42 -11 -3 -8 -20 -14 -42 -14 -32 0 -35 2 -24 15 7 9 19 14 27 11 8 -3 16 0
19 8 6 15 144 23 144 7z"/>
<path d="M1570 1011 c0 -55 3 -71 14 -71 10 0 16 13 18 35 4 48 22 49 26 3 4
-53 32 -52 32 1 0 38 -17 57 -47 52 -6 -1 -13 8 -15 20 -2 13 -9 24 -15 27
-10 3 -13 -15 -13 -67z"/>
<path d="M598 1005 c-2 -46 1 -65 9 -65 7 0 13 19 15 48 l4 47 13 -48 c15 -54
31 -57 44 -6 14 55 27 58 27 6 0 -26 5 -47 10 -47 7 0 10 24 8 62 -2 47 -7 64
-19 66 -10 2 -20 -12 -31 -45 l-15 -48 -14 48 c-9 32 -18 47 -30 47 -14 0 -18
-12 -21 -65z"/>
<path d="M900 1005 c0 -51 3 -65 15 -65 9 0 15 9 15 25 0 18 5 25 19 25 11 0
23 5 26 10 4 6 -5 10 -19 10 -20 0 -26 5 -26 21 0 15 5 19 22 17 11 -2 23 3
25 10 3 8 -8 12 -36 12 l-41 0 0 -65z"/>
<path d="M1102 1044 c-5 -9 -8 -24 -6 -33 12 -64 15 -71 34 -71 11 0 20 5 20
10 0 6 -4 10 -10 10 -15 0 -12 57 3 63 10 4 10 6 0 6 -7 1 -13 8 -13 16 0 20
-17 19 -28 -1z"/>
<path d="M750 1035 c0 -2 7 -23 17 -46 13 -34 14 -45 4 -61 -15 -24 -7 -35 13
-19 17 14 61 119 53 127 -10 10 -27 -6 -27 -26 0 -32 -17 -32 -29 0 -5 17 -15
30 -20 30 -6 0 -11 -2 -11 -5z"/>
<path d="M1013 1033 c-21 -8 -15 -25 6 -18 11 3 22 1 26 -5 3 -5 -2 -10 -13
-10 -25 0 -46 -25 -38 -45 3 -9 18 -15 41 -15 34 0 35 1 35 40 0 29 -5 42 -19
50 -11 5 -21 10 -23 9 -2 0 -9 -3 -15 -6z"/>
<path d="M1179 1021 c-20 -16 -22 -23 -14 -47 18 -51 95 -40 95 13 0 15 -35
53 -49 53 -5 0 -19 -9 -32 -19z m49 -34 c3 -21 -1 -27 -17 -27 -23 0 -32 18
-19 43 13 25 32 16 36 -16z"/>
<path d="M1290 1020 c-23 -23 -24 -33 -10 -61 12 -22 59 -26 78 -7 19 19 14
55 -10 72 -29 20 -34 20 -58 -4z m50 -15 c16 -20 5 -45 -20 -45 -14 0 -20 7
-20 23 0 38 18 48 40 22z"/>
<path d="M1397 1033 c-4 -3 -7 -26 -7 -50 0 -32 4 -43 15 -43 10 0 15 10 15
30 0 18 6 33 15 36 8 4 15 12 15 20 0 17 -16 19 -26 3 -5 -8 -8 -8 -13 0 -4 6
-10 8 -14 4z"/>
<path d="M1483 1033 c-20 -8 -15 -22 6 -16 10 3 22 0 25 -6 4 -7 -1 -11 -12
-11 -25 0 -46 -25 -38 -45 3 -9 18 -15 41 -15 34 0 35 1 35 40 0 29 -5 42 -19
50 -11 5 -21 10 -23 9 -2 0 -9 -3 -15 -6z m37 -57 c0 -18 -27 -29 -36 -14 -4
5 0 14 7 19 20 13 29 11 29 -5z"/>
</g>
</svg>
