<?xml version="1.0" standalone="no"?>
<!DOCTYPE svg PUBLIC "-//W3C//DTD SVG 20010904//EN"
 "http://www.w3.org/TR/2001/REC-SVG-20010904/DTD/svg10.dtd">
<svg version="1.0" xmlns="http://www.w3.org/2000/svg"
 width="293.000000pt" height="220.000000pt" viewBox="0 0 293.000000 220.000000"
 preserveAspectRatio="xMidYMid meet">
<metadata>
Created by potrace 1.10, written by Peter Selinger 2001-2011
</metadata>
<g transform="translate(0.000000,220.000000) scale(0.100000,-0.100000)"
fill="#000000" stroke="none">
<path d="M410 1374 l0 -84 -35 0 c-35 0 -35 0 -35 -45 0 -25 1 -45 3 -45 1 0
17 4 35 9 30 9 32 8 32 -15 0 -21 -5 -24 -35 -24 -35 0 -35 0 -35 -44 l0 -45
32 10 c18 5 34 9 34 9 1 0 4 -36 6 -81 3 -76 5 -82 35 -109 39 -35 90 -46 152
-34 l46 9 3 51 3 51 -50 -5 c-69 -6 -81 6 -81 78 l0 58 69 7 69 7 4 39 c2 22
2 41 0 43 -1 2 -31 -3 -65 -10 -80 -17 -77 -17 -77 5 0 22 12 27 87 36 51 7
51 7 55 46 2 22 2 41 1 43 -3 3 -202 -32 -220 -39 -7 -2 -13 -1 -13 3 0 4 13
13 30 19 36 13 70 67 70 110 l0 32 -60 0 -60 -1 0 -84z m75 27 c-3 -2 0 -9 5
-16 7 -8 5 -12 -5 -12 -8 0 -15 4 -15 9 0 5 -4 6 -10 3 -5 -3 -10 1 -10 9 0 8
8 14 20 13 10 -1 17 -3 15 -6z m16 -125 c28 -12 31 -16 17 -21 -10 -4 -15 -11
-12 -16 3 -5 0 -9 -6 -9 -6 0 -8 -4 -5 -10 3 -5 0 -10 -7 -10 -9 -1 -8 -4 3
-13 9 -7 18 -24 21 -39 4 -21 0 -28 -19 -37 -19 -9 -23 -8 -23 6 0 9 -3 13 -6
10 -4 -3 2 -23 12 -44 10 -21 18 -55 18 -75 1 -23 6 -38 13 -38 7 0 12 -5 10
-11 -1 -6 4 -14 12 -17 8 -2 11 0 8 5 -4 6 4 8 21 5 l27 -6 -25 -7 c-20 -6
-16 -7 20 -9 38 -2 41 -3 20 -10 -14 -4 -20 -9 -15 -9 6 -1 2 -6 -8 -12 -13
-8 -22 -7 -32 1 -8 6 -23 9 -34 5 -25 -8 -65 29 -57 52 4 9 1 22 -5 29 -8 9
-9 33 -5 67 5 45 3 57 -15 75 -11 12 -15 22 -10 22 14 0 24 36 16 59 -4 13
-12 18 -23 15 -9 -2 -3 3 13 11 l30 15 -40 -5 -40 -6 45 20 c25 10 46 19 46
20 1 1 17 -5 35 -13z"/>
<path d="M466 973 c1 -16 2 -31 3 -34 2 -14 33 -19 49 -8 15 9 15 10 -2 5 -10
-4 -25 -1 -32 5 -17 14 -19 33 -3 23 8 -4 8 0 0 15 -15 27 -17 27 -15 -6z"/>
<path d="M1295 1435 c-5 -2 -27 -6 -47 -10 l-38 -6 0 -269 0 -270 60 0 61 0
-6 63 -7 62 25 -50 c28 -58 73 -85 140 -85 121 1 191 122 165 285 -17 107 -73
165 -163 165 -73 0 -114 -24 -141 -84 l-22 -51 5 128 c6 130 5 135 -32 122z
m-5 -92 c0 -72 4 -107 13 -114 5 -4 2 -20 -7 -36 -12 -23 -13 -39 -6 -64 12
-42 12 -72 0 -44 -7 16 -9 13 -8 -15 0 -19 4 -46 9 -60 l9 -25 -4 27 c-2 15 1
25 5 22 5 -3 8 -25 7 -48 -2 -34 -6 -42 -18 -38 -13 5 -13 3 -1 -12 8 -9 10
-16 5 -15 -5 1 -11 0 -14 -1 -35 -13 -35 -14 -32 223 3 226 6 246 35 247 4 0
7 -21 7 -47z m268 -77 c29 -15 33 -21 28 -44 -4 -18 -4 -22 2 -13 8 11 11 11
18 0 4 -7 3 -14 -4 -17 -16 -5 -15 -22 2 -22 10 0 13 -19 12 -86 -1 -73 -4
-88 -21 -102 -11 -10 -19 -24 -17 -33 1 -9 -5 -22 -14 -30 -16 -13 -17 -12
-11 11 5 23 5 23 -7 7 -17 -23 -80 -34 -91 -17 -6 10 -1 12 21 7 26 -5 27 -4
10 8 -17 13 -16 14 6 17 13 2 22 9 21 15 -2 7 3 10 11 7 9 -3 19 6 27 25 8 17
17 31 21 31 5 0 8 7 8 16 0 8 -4 12 -10 9 -5 -3 -10 -1 -10 4 0 6 4 11 10 11
5 0 7 7 4 15 -5 11 -1 14 12 9 15 -4 16 -4 5 4 -8 6 -12 19 -8 31 3 12 2 19
-3 16 -4 -2 -7 7 -7 21 0 34 -31 66 -57 58 -17 -4 -18 -3 -6 5 9 6 10 11 3 11
-14 0 -43 28 -43 41 0 13 50 5 88 -15z m-58 -64 c58 -58 46 -193 -20 -227
-104 -54 -197 67 -146 189 29 71 114 90 166 38z"/>
<path d="M1785 1435 c-5 -2 -27 -6 -47 -10 l-38 -6 0 -269 0 -270 60 0 60 0
-5 63 -5 62 21 -47 c34 -76 122 -108 205 -73 75 31 108 104 103 227 -4 92 -26
148 -72 182 -38 28 -131 33 -177 9 -32 -17 -43 -30 -69 -93 -8 -19 -9 8 -6
103 5 128 4 134 -30 122z m-5 -77 c0 -16 -5 -39 -12 -51 -9 -19 -9 -20 3 -10
12 9 14 -2 17 -73 1 -52 -2 -84 -8 -84 -5 0 -10 -10 -10 -22 0 -16 3 -19 8
-10 5 8 8 -1 8 -23 -1 -31 -3 -33 -13 -18 -16 21 -17 12 -2 -21 7 -14 16 -23
20 -20 11 6 7 -25 -4 -43 -5 -8 -4 -13 2 -13 6 0 11 -5 11 -11 0 -5 -4 -8 -8
-5 -4 2 -14 -9 -22 -26 l-13 -32 -10 25 c-10 24 -11 418 -2 450 9 28 35 18 35
-13z m223 -90 c10 -5 28 -6 40 -2 12 3 19 3 15 -1 -4 -5 0 -14 10 -22 10 -9
11 -12 2 -7 -8 4 -3 -5 13 -19 28 -27 28 -33 10 -99 -6 -26 6 -22 17 5 14 31
2 -43 -16 -107 -17 -60 -17 -59 -1 -50 7 4 9 3 4 -2 -5 -5 -10 -7 -12 -4 -1 3
-12 -3 -24 -14 -11 -10 -18 -22 -16 -26 3 -4 -5 -8 -18 -7 -12 0 -35 -3 -52
-7 -29 -7 -29 -7 -10 9 20 17 20 17 -2 10 -15 -4 -23 -2 -23 5 0 8 11 11 29 8
24 -4 29 -1 26 14 -2 10 0 16 4 14 4 -3 20 8 35 23 24 25 26 32 17 50 -14 25
-8 27 13 6 14 -14 15 -13 11 12 -2 16 -10 47 -18 71 -8 23 -11 42 -7 42 5 0
10 -6 13 -12 2 -7 2 -2 0 10 -3 17 0 21 8 16 8 -4 9 -3 5 5 -5 7 -13 8 -24 2
-12 -7 -22 -3 -39 15 -13 14 -23 28 -23 31 0 4 9 -3 20 -15 17 -18 50 -21 50
-5 0 3 -7 2 -16 -1 -12 -5 -15 -2 -10 9 3 9 2 13 -4 10 -6 -3 -20 1 -32 9 -12
9 -30 16 -40 16 -10 0 -18 5 -18 10 0 6 -7 10 -16 10 -14 0 -15 -2 -3 -17 13
-16 12 -17 -3 -4 -10 7 -15 17 -12 22 6 10 68 2 97 -13z m-21 -58 c64 -50 56
-200 -13 -235 -36 -19 -63 -19 -100 1 -74 38 -78 188 -8 238 32 22 91 20 121
-4z"/>
<path d="M804 1310 c-11 -4 -34 -24 -51 -43 -78 -89 -66 -296 22 -365 80 -63
223 -23 241 67 11 55 19 41 16 -25 l-4 -64 59 0 58 0 -2 212 c-1 117 -6 214
-10 216 -4 1 -29 -1 -55 -4 l-48 -7 0 -56 -1 -56 -13 38 c-17 46 -32 64 -67
83 -30 15 -111 18 -145 4z m72 -35 c-5 -13 -2 -13 20 1 13 9 27 14 31 10 3 -3
0 -6 -8 -7 -9 0 -6 -4 6 -10 17 -8 16 -8 -7 -4 -15 3 -29 1 -33 -5 -3 -5 -18
-8 -33 -6 -15 2 -21 1 -14 -1 6 -2 12 -12 12 -21 0 -15 -2 -15 -10 -2 -9 13
-10 13 -10 0 -1 -12 -4 -11 -15 4 -14 18 -35 14 -35 -7 0 -8 3 -8 9 2 12 19
21 0 14 -34 -13 -75 -14 -166 -2 -181 17 -21 21 -46 6 -37 -7 4 -6 -1 2 -10
14 -18 37 -24 26 -8 -3 5 0 13 6 17 7 4 9 3 5 -4 -3 -5 0 -13 6 -15 10 -4 9
-8 -2 -16 -11 -8 -5 -9 22 -4 33 5 37 3 35 -15 -1 -18 -7 -21 -38 -19 -20 1
-36 4 -34 7 1 3 -7 14 -18 25 -11 11 -17 14 -13 8 4 -7 2 -13 -3 -13 -6 0 -11
5 -11 11 0 5 -5 7 -11 3 -14 -9 10 38 25 48 6 4 1 6 -11 6 -11 -1 -19 -7 -16
-14 2 -6 -2 -14 -9 -17 -16 -5 -16 -3 -24 116 -4 62 -2 92 6 102 7 8 16 13 20
10 4 -3 4 11 0 30 -6 27 -4 37 9 47 14 12 15 11 2 -4 -13 -17 -2 -26 13 -11 7
7 63 30 80 32 4 0 6 -6 2 -14z m239 -11 c-6 -2 -9 -63 -8 -156 1 -167 -1 -188
-22 -188 -15 0 -39 71 -27 80 4 3 7 19 8 35 0 17 5 50 9 74 5 30 5 42 -2 38
-13 -8 -25 46 -16 70 4 10 11 21 17 25 7 5 6 8 -4 9 -8 0 -4 5 10 9 27 9 53
12 35 4z m-124 -62 c88 -79 30 -256 -78 -239 -56 10 -85 45 -91 111 -6 71 3
102 35 132 37 34 93 33 134 -4z"/>
<path d="M2170 1220 c15 -52 40 -150 56 -217 l29 -123 53 0 c59 0 60 -2 37
-76 -8 -27 -15 -51 -15 -54 0 -3 26 -4 58 -2 l58 4 72 276 c40 152 72 279 72
282 0 3 -25 5 -55 5 l-56 0 -10 -40 c-6 -22 -21 -78 -34 -125 -13 -47 -31
-119 -40 -160 -10 -41 -20 -82 -23 -90 -5 -18 -5 -17 -62 230 l-42 185 -62 0
-62 0 26 -95z m73 50 c-3 -11 0 -20 6 -20 6 0 11 -5 11 -11 0 -6 -7 -8 -16 -5
-14 5 -15 4 -4 -9 7 -8 10 -26 8 -40 -3 -13 -1 -22 3 -19 5 3 10 15 10 27 2
36 31 -104 32 -155 0 -26 4 -45 7 -43 4 2 12 -11 17 -30 6 -19 7 -37 3 -40 -5
-3 -11 7 -13 22 -4 26 -4 26 -6 -4 -1 -33 -14 -43 -27 -21 -4 7 -3 8 4 4 15
-9 15 5 0 41 -16 39 -19 53 -25 96 -3 20 -9 37 -14 37 -5 0 -9 14 -9 31 0 16
-3 28 -7 26 -5 -3 -9 11 -10 32 -1 27 1 31 7 16 5 -11 9 -15 9 -8 2 23 -11 42
-25 36 -15 -5 -18 5 -8 31 8 22 25 20 18 -1 -4 -13 0 -11 12 5 20 27 24 28 17
2z m297 -25 c-6 -8 -9 -23 -5 -35 4 -11 2 -20 -4 -20 -6 0 -11 -8 -11 -19 0
-10 -7 -32 -15 -47 -8 -16 -15 -44 -15 -62 0 -22 -4 -31 -11 -26 -8 4 -9 -1
-4 -16 4 -12 3 -20 -1 -17 -8 5 -11 -11 -15 -95 -1 -16 -5 -28 -9 -28 -4 0
-10 -18 -14 -40 -8 -49 -41 -73 -48 -36 -7 33 2 87 13 80 5 -3 9 5 9 18 0 36
25 110 34 101 4 -4 7 6 5 22 -1 17 -1 44 0 60 2 28 3 29 11 8 13 -31 17 -29
12 6 -2 16 4 55 13 88 14 47 19 54 26 38 7 -19 8 -19 8 2 1 12 -6 23 -16 26
-10 3 -3 5 16 6 28 1 32 -1 21 -14z"/>
</g>
</svg>
